# xmcd
#
# Track frame offsets:
#	150
#	12833
#	40776
#	95768
#	130804
#	175683
#	208354
#	245343
#	278798
#
# Disc length: 3919 seconds
#
# Revision: 0
# Processed by: cddbd v1.5.2PL0 Copyright (c) Steve Scherf et al.
# Submitted via: audiograbber 1.83.01
#
DISCID=790f4d09
DTITLE=Grateful Dead - 93-02-22 Oakland Coliseum Arena, Oakland CA
DYEAR=1900
DGENRE=
TTITLE0=Tuning
TTITLE1=Hell In A Bucket
TTITLE2=Sugaree
TTITLE3=Walkin' Blues
TTITLE4=Althea
TTITLE5=When I Paint My Masterpiece
TTITLE6=So Many Roads
TTITLE7=Cassidy
TTITLE8=Don't Ease Me In
EXTD=
EXTT0=
EXTT1=
EXTT2=
EXTT3=
EXTT4=
EXTT5=
EXTT6=
EXTT7=
EXTT8=
PLAYORDER=
